<svg viewBox="0 0 14.6506 16.7017" xmlns="http://www.w3.org/2000/svg" xmlns:xlink="http://www.w3.org/1999/xlink" width="14.650635" height="16.701660" fill="none" customFrame="#000000">
	<path id="Vector" d="M14.6506 15.9895L10.0862 10.786C10.9465 9.64236 11.4706 8.15969 11.4706 6.53821C11.4706 2.93312 8.89765 -3.05176e-05 5.7353 -3.05176e-05C4.20353 -3.05176e-05 2.76265 0.679946 1.67824 1.91416C0.595589 3.14939 -0.000881375 4.79199 9.77541e-07 6.53821C9.77541e-07 10.1433 2.57294 13.0764 5.7353 13.0764C7.15765 13.0764 8.45912 12.4789 9.46235 11.4982L14.0268 16.7016L14.6506 15.9895ZM5.7353 12.0706C3.06 12.0706 0.882354 9.58905 0.882354 6.53821C0.881472 5.05956 1.38618 3.67043 2.30294 2.62633C3.21882 1.58122 4.43824 1.00585 5.7353 1.00585C8.41059 1.00585 10.5882 3.48736 10.5882 6.53821C10.5882 9.58804 8.41059 12.0706 5.7353 12.0706Z" fill="rgb(255,255,255)" fill-rule="nonzero" />
</svg>
